<svg width="1150" height="134" viewBox="0 0 1150 134" fill="none" xmlns="http://www.w3.org/2000/svg">
<path d="M1131.92 133.321C1130 133.321 1128.38 131.881 1127.06 129.001L1078.28 23.1609C1077.92 22.321 1077.44 21.961 1076.84 22.081C1076.36 22.201 1076.12 22.7409 1076.12 23.701V116.221C1076.12 119.581 1076.66 122.161 1077.74 123.961C1078.94 125.641 1081.04 126.721 1084.04 127.201L1086.38 127.561C1087.94 127.681 1088.72 128.401 1088.72 129.721C1088.72 131.041 1087.82 131.701 1086.02 131.701H1060.28C1058.48 131.701 1057.58 131.041 1057.58 129.721C1057.58 128.401 1058.36 127.681 1059.92 127.561L1062.26 127.201C1065.38 126.721 1067.54 125.641 1068.74 123.961C1069.94 122.161 1070.54 119.581 1070.54 116.221V13.9809C1070.54 11.461 1070.12 9.78096 1069.28 8.94095C1068.56 8.10096 1066.82 7.44096 1064.06 6.96096L1059.92 6.24095C1058.36 5.88095 1057.58 5.16095 1057.58 4.08095C1057.58 2.76095 1058.48 2.10095 1060.28 2.10095H1079.54C1082.54 2.10095 1084.64 3.42095 1085.84 6.06096L1128.32 99.481C1128.68 100.201 1129.1 100.501 1129.58 100.381C1130.18 100.261 1130.48 99.841 1130.48 99.121V17.581C1130.48 13.741 1129.82 11.101 1128.5 9.66095C1127.18 8.10095 1125.5 7.14095 1123.46 6.78096L1120.22 6.24095C1118.66 5.88095 1117.88 5.16095 1117.88 4.08095C1117.88 2.76095 1118.78 2.10095 1120.58 2.10095H1146.32C1148.12 2.10095 1149.02 2.76095 1149.02 4.08095C1149.02 5.40095 1148.24 6.12095 1146.68 6.24095L1144.34 6.60095C1141.22 7.08095 1139.06 8.10095 1137.86 9.66095C1136.66 11.101 1136.06 13.741 1136.06 17.581V127.561C1136.06 129.721 1135.64 131.221 1134.8 132.061C1134.08 132.901 1133.12 133.321 1131.92 133.321Z" fill="url(#paint0_linear_3_12)"/>
<path d="M1007.5 133.321C1001.74 133.321 996.343 131.641 991.303 128.281C986.263 124.801 981.823 120.061 977.983 114.061C974.263 108.061 971.323 101.041 969.163 93.0009C967.123 84.8409 966.103 76.0809 966.103 66.7209C966.103 57.3609 967.123 48.6609 969.163 40.6209C971.323 32.5809 974.263 25.5609 977.983 19.5609C981.823 13.4409 986.263 8.7009 991.303 5.3409C996.343 1.9809 1001.74 0.300903 1007.5 0.300903C1013.26 0.300903 1018.6 1.9809 1023.52 5.3409C1028.56 8.7009 1033 13.4409 1036.84 19.5609C1040.68 25.5609 1043.62 32.5809 1045.66 40.6209C1047.82 48.6609 1048.9 57.3609 1048.9 66.7209C1048.9 76.0809 1047.82 84.8409 1045.66 93.0009C1043.62 101.041 1040.68 108.061 1036.84 114.061C1033 120.061 1028.56 124.801 1023.52 128.281C1018.6 131.641 1013.26 133.321 1007.5 133.321ZM1007.5 128.461C1016.02 128.461 1022.68 123.361 1027.48 113.161C1032.28 102.961 1034.68 87.4809 1034.68 66.7209C1034.68 45.9609 1032.28 30.5409 1027.48 20.4609C1022.68 10.2609 1016.02 5.1609 1007.5 5.1609C999.103 5.1609 992.443 10.2609 987.523 20.4609C982.723 30.5409 980.323 45.9609 980.323 66.7209C980.323 87.4809 982.723 102.961 987.523 113.161C992.443 123.361 999.103 128.461 1007.5 128.461Z" fill="url(#paint1_linear_3_12)"/>
<path d="M910.296 133.321C904.536 133.321 899.136 131.641 894.096 128.281C889.056 124.801 884.616 120.061 880.776 114.061C877.056 108.061 874.116 101.041 871.956 93.0009C869.916 84.8409 868.896 76.0809 868.896 66.7209C868.896 57.3609 869.916 48.6609 871.956 40.6209C874.116 32.5809 877.056 25.5609 880.776 19.5609C884.616 13.4409 889.056 8.7009 894.096 5.3409C899.136 1.9809 904.536 0.300903 910.296 0.300903C916.056 0.300903 921.396 1.9809 926.316 5.3409C931.356 8.7009 935.796 13.4409 939.636 19.5609C943.476 25.5609 946.416 32.5809 948.456 40.6209C950.616 48.6609 951.696 57.3609 951.696 66.7209C951.696 76.0809 950.616 84.8409 948.456 93.0009C946.416 101.041 943.476 108.061 939.636 114.061C935.796 120.061 931.356 124.801 926.316 128.281C921.396 131.641 916.056 133.321 910.296 133.321ZM910.296 128.461C918.816 128.461 925.476 123.361 930.276 113.161C935.076 102.961 937.476 87.4809 937.476 66.7209C937.476 45.9609 935.076 30.5409 930.276 20.4609C925.476 10.2609 918.816 5.1609 910.296 5.1609C901.896 5.1609 895.236 10.2609 890.316 20.4609C885.516 30.5409 883.116 45.9609 883.116 66.7209C883.116 87.4809 885.516 102.961 890.316 113.161C895.236 123.361 901.896 128.461 910.296 128.461Z" fill="url(#paint2_linear_3_12)"/>
<path d="M821.516 133.321C819.116 133.321 816.416 133.081 813.416 132.601C810.536 132.121 807.776 131.521 805.136 130.801C802.616 130.081 800.636 129.301 799.196 128.461C798.356 127.981 797.696 127.501 797.216 127.021C796.856 126.421 796.676 125.461 796.676 124.141L795.776 95.8809C795.776 93.4809 796.556 92.2809 798.116 92.2809C799.436 92.2809 800.336 93.3609 800.816 95.5209L802.436 102.361C806.516 119.521 814.136 128.101 825.296 128.101C831.296 128.101 836.036 126.121 839.516 122.161C843.116 118.081 844.916 112.381 844.916 105.061C844.916 97.9809 843.056 91.3809 839.336 85.2609C835.736 79.1409 829.916 73.0809 821.876 67.0809C812.996 60.7209 806.516 54.6009 802.436 48.7209C798.356 42.7209 796.316 36.3609 796.316 29.6409C796.316 20.7609 799.376 13.6809 805.496 8.40089C811.736 3.0009 819.656 0.300903 829.256 0.300903C832.856 0.300903 836.336 0.720901 839.696 1.5609C843.056 2.4009 845.816 3.6009 847.976 5.1609C848.696 5.6409 849.236 6.1809 849.596 6.7809C850.076 7.3809 850.316 8.1609 850.316 9.1209L850.856 36.3009C850.856 38.3409 850.076 39.3609 848.516 39.3609C847.436 39.3609 846.656 38.5209 846.176 36.8409L844.916 32.3409C842.276 23.1009 839.516 16.3809 836.636 12.1809C833.876 7.8609 829.856 5.7009 824.576 5.7009C819.416 5.7009 815.276 7.38089 812.156 10.7409C809.156 14.1009 807.656 18.8409 807.656 24.9609C807.656 30.1209 809.336 35.0409 812.696 39.7209C816.056 44.4009 821.936 50.1009 830.336 56.8209C839.336 64.1409 845.876 71.2209 849.956 78.0609C854.156 84.7809 856.256 91.9809 856.256 99.6609C856.256 106.381 854.756 112.261 851.756 117.301C848.756 122.341 844.616 126.301 839.336 129.181C834.176 131.941 828.236 133.321 821.516 133.321Z" fill="url(#paint3_linear_3_12)"/>
<path d="M716.323 133.321C706.603 133.321 698.383 130.561 691.663 125.041C684.943 119.521 679.842 111.781 676.362 101.821C672.882 91.7409 671.143 79.8609 671.143 66.1809C671.143 52.9809 673.183 41.4609 677.263 31.6209C681.343 21.6609 686.923 13.9809 694.003 8.5809C701.203 3.0609 709.423 0.300903 718.663 0.300903C723.343 0.300903 727.603 0.7809 731.443 1.74089C735.283 2.5809 738.643 3.7209 741.523 5.1609C743.083 6.0009 743.862 7.2609 743.862 8.9409L744.403 36.3009C744.403 38.3409 743.682 39.3609 742.242 39.3609C740.922 39.3609 740.083 38.5809 739.723 37.0209L738.283 31.6209C735.643 21.6609 732.643 14.8209 729.283 11.1009C725.923 7.3809 721.302 5.5209 715.422 5.5209C706.662 5.5209 699.403 10.7409 693.643 21.1809C688.003 31.5009 685.182 46.5009 685.182 66.1809C685.182 86.4609 688.063 101.941 693.823 112.621C699.703 123.181 707.203 128.461 716.323 128.461C721.243 128.461 724.962 127.381 727.482 125.221C730.002 123.061 731.263 119.041 731.263 113.161V73.7409C731.263 71.2209 730.843 69.4809 730.003 68.5209C729.283 67.5609 727.663 66.9609 725.143 66.7209L718.122 66.0009C716.562 65.8809 715.783 65.1609 715.783 63.8409C715.783 62.5209 716.682 61.8609 718.482 61.8609H751.422C753.222 61.8609 754.122 62.5809 754.122 64.0209C754.122 65.1009 753.463 65.7609 752.143 66.0009L749.443 66.3609C746.803 66.7209 745.243 67.4409 744.763 68.5209C744.283 69.6009 744.042 71.4009 744.042 73.9209V122.701C744.042 124.021 743.683 125.101 742.963 125.941C742.243 126.661 740.982 127.501 739.182 128.461C736.302 129.901 733.003 131.041 729.283 131.881C725.563 132.841 721.243 133.321 716.323 133.321Z" fill="url(#paint4_linear_3_12)"/>
<path d="M646.065 133.321C644.145 133.321 642.525 131.881 641.205 129.001L592.425 23.1609C592.065 22.321 591.585 21.961 590.985 22.081C590.505 22.201 590.265 22.7409 590.265 23.701V116.221C590.265 119.581 590.805 122.161 591.885 123.961C593.085 125.641 595.185 126.721 598.185 127.201L600.525 127.561C602.085 127.681 602.865 128.401 602.865 129.721C602.865 131.041 601.965 131.701 600.165 131.701H574.425C572.625 131.701 571.725 131.041 571.725 129.721C571.725 128.401 572.505 127.681 574.065 127.561L576.405 127.201C579.525 126.721 581.685 125.641 582.885 123.961C584.085 122.161 584.685 119.581 584.685 116.221V13.9809C584.685 11.461 584.265 9.78096 583.425 8.94095C582.705 8.10096 580.965 7.44096 578.205 6.96096L574.065 6.24095C572.505 5.88095 571.725 5.16095 571.725 4.08095C571.725 2.76095 572.625 2.10095 574.425 2.10095H593.685C596.685 2.10095 598.785 3.42095 599.985 6.06096L642.465 99.481C642.825 100.201 643.245 100.501 643.725 100.381C644.325 100.261 644.625 99.841 644.625 99.121V17.581C644.625 13.741 643.965 11.101 642.645 9.66095C641.325 8.10095 639.645 7.14095 637.605 6.78096L634.365 6.24095C632.805 5.88095 632.025 5.16095 632.025 4.08095C632.025 2.76095 632.925 2.10095 634.725 2.10095H660.465C662.265 2.10095 663.165 2.76095 663.165 4.08095C663.165 5.40095 662.385 6.12095 660.825 6.24095L658.485 6.60095C655.365 7.08095 653.205 8.10095 652.005 9.66095C650.805 11.101 650.205 13.741 650.205 17.581V127.561C650.205 129.721 649.785 131.221 648.945 132.061C648.225 132.901 647.265 133.321 646.065 133.321Z" fill="url(#paint5_linear_3_12)"/>
<path d="M530.141 131.701C528.341 131.701 527.441 131.041 527.441 129.721C527.441 128.641 528.221 127.921 529.781 127.561L533.921 126.841C536.441 126.361 538.061 125.701 538.781 124.861C539.621 124.021 540.041 122.341 540.041 119.821V13.9809C540.041 11.461 539.621 9.78096 538.781 8.94095C538.061 8.10096 536.441 7.44096 533.921 6.96096L529.781 6.24095C528.221 5.88095 527.441 5.16095 527.441 4.08095C527.441 2.76095 528.341 2.10095 530.141 2.10095H562.721C564.521 2.10095 565.421 2.76095 565.421 4.08095C565.421 5.16095 564.641 5.88095 563.081 6.24095L558.941 6.96096C556.421 7.44096 554.741 8.10096 553.901 8.94095C553.181 9.78096 552.821 11.461 552.821 13.9809V119.821C552.821 122.341 553.181 124.021 553.901 124.861C554.741 125.701 556.421 126.361 558.941 126.841L563.081 127.561C564.641 127.921 565.421 128.641 565.421 129.721C565.421 131.041 564.521 131.701 562.721 131.701H530.141Z" fill="url(#paint6_linear_3_12)"/>
<path d="M431.879 131.701C430.079 131.701 429.179 131.041 429.179 129.721C429.179 128.641 429.959 127.921 431.519 127.561L435.659 126.841C438.179 126.361 439.799 125.701 440.519 124.861C441.359 124.021 441.779 122.341 441.779 119.821V13.9809C441.779 11.461 441.359 9.78096 440.519 8.94095C439.799 8.10096 438.179 7.44096 435.659 6.96096L431.519 6.24095C429.959 5.88095 429.179 5.16095 429.179 4.08095C429.179 2.76095 430.079 2.10095 431.879 2.10095H464.819C466.619 2.10095 467.519 2.82095 467.519 4.26096C467.519 5.34095 466.859 6.00095 465.539 6.24095L460.679 6.96096C458.159 7.32095 456.479 7.98095 455.639 8.94095C454.919 9.90095 454.559 11.641 454.559 14.1609V59.341C454.559 61.021 455.399 61.861 457.079 61.861H492.719C494.399 61.861 495.239 61.021 495.239 59.341V14.1609C495.239 11.641 494.819 9.90095 493.979 8.94095C493.259 7.98095 491.639 7.32095 489.119 6.96096L484.259 6.24095C482.939 6.00095 482.279 5.34095 482.279 4.26096C482.279 2.82095 483.179 2.10095 484.979 2.10095H517.919C519.719 2.10095 520.619 2.76095 520.619 4.08095C520.619 5.16095 519.839 5.88095 518.279 6.24095L514.139 6.96096C511.619 7.44096 509.939 8.10096 509.099 8.94095C508.379 9.78096 508.019 11.461 508.019 13.9809V119.821C508.019 122.341 508.379 124.021 509.099 124.861C509.939 125.701 511.619 126.361 514.139 126.841L518.279 127.561C519.839 127.921 520.619 128.641 520.619 129.721C520.619 131.041 519.719 131.701 517.919 131.701H484.979C483.179 131.701 482.279 130.981 482.279 129.541C482.279 128.461 482.939 127.801 484.259 127.561L489.119 126.841C491.639 126.481 493.259 125.821 493.979 124.861C494.819 123.901 495.239 122.161 495.239 119.641V69.781C495.239 68.101 494.399 67.261 492.719 67.261H457.079C455.399 67.261 454.559 68.101 454.559 69.781V119.641C454.559 122.161 454.919 123.901 455.639 124.861C456.479 125.821 458.159 126.481 460.679 126.841L465.539 127.561C466.859 127.801 467.519 128.461 467.519 129.541C467.519 130.981 466.619 131.701 464.819 131.701H431.879Z" fill="url(#paint7_linear_3_12)"/>
<path d="M390.755 133.321C381.875 133.321 374.075 130.561 367.355 125.041C360.755 119.521 355.595 111.781 351.875 101.821C348.275 91.7409 346.475 79.8609 346.475 66.1809C346.475 52.9809 348.455 41.4609 352.415 31.6209C356.495 21.6609 361.895 13.9809 368.615 8.5809C375.455 3.0609 383.015 0.300903 391.295 0.300903C396.215 0.300903 400.535 0.7809 404.255 1.74089C407.975 2.5809 411.275 3.7209 414.155 5.1609C415.595 6.0009 416.315 7.2609 416.315 8.9409L416.855 36.3009C416.855 38.3409 416.135 39.3609 414.695 39.3609C413.375 39.3609 412.535 38.5809 412.175 37.0209L410.375 30.3609C407.855 21.0009 404.915 14.5209 401.555 10.9209C398.315 7.3209 394.415 5.5209 389.855 5.5209C381.455 5.5209 374.435 10.7409 368.795 21.1809C363.275 31.5009 360.515 46.5009 360.515 66.1809C360.515 79.6209 361.895 90.9609 364.655 100.201C367.535 109.441 371.195 116.401 375.635 121.081C380.195 125.761 384.995 128.101 390.035 128.101C395.435 128.101 399.755 126.421 402.995 123.061C406.355 119.701 409.175 113.221 411.455 103.621L413.615 94.8009C413.975 93.0009 414.935 92.2209 416.495 92.4609C417.815 92.7009 418.475 93.7209 418.475 95.5209L417.755 124.681C417.755 126.361 416.975 127.621 415.415 128.461C412.535 129.901 409.115 131.041 405.155 131.881C401.315 132.841 396.515 133.321 390.755 133.321Z" fill="url(#paint8_linear_3_12)"/>
<path d="M321.397 133.321C319.477 133.321 317.857 131.881 316.537 129.001L267.757 23.1609C267.397 22.321 266.917 21.961 266.317 22.081C265.837 22.201 265.597 22.7409 265.597 23.701V116.221C265.597 119.581 266.137 122.161 267.217 123.961C268.417 125.641 270.517 126.721 273.517 127.201L275.857 127.561C277.417 127.681 278.197 128.401 278.197 129.721C278.197 131.041 277.297 131.701 275.497 131.701H249.757C247.957 131.701 247.057 131.041 247.057 129.721C247.057 128.401 247.837 127.681 249.397 127.561L251.737 127.201C254.857 126.721 257.017 125.641 258.217 123.961C259.417 122.161 260.017 119.581 260.017 116.221V13.9809C260.017 11.461 259.597 9.78096 258.757 8.94095C258.037 8.10096 256.297 7.44096 253.537 6.96096L249.397 6.24095C247.837 5.88095 247.057 5.16095 247.057 4.08095C247.057 2.76095 247.957 2.10095 249.757 2.10095H269.017C272.017 2.10095 274.117 3.42095 275.317 6.06096L317.797 99.481C318.157 100.201 318.577 100.501 319.057 100.381C319.657 100.261 319.957 99.841 319.957 99.121V17.581C319.957 13.741 319.297 11.101 317.977 9.66095C316.657 8.10095 314.977 7.14095 312.937 6.78096L309.697 6.24095C308.137 5.88095 307.357 5.16095 307.357 4.08095C307.357 2.76095 308.257 2.10095 310.057 2.10095H335.797C337.597 2.10095 338.497 2.76095 338.497 4.08095C338.497 5.40095 337.717 6.12095 336.157 6.24095L333.817 6.60095C330.697 7.08095 328.537 8.10095 327.337 9.66095C326.137 11.101 325.537 13.741 325.537 17.581V127.561C325.537 129.721 325.117 131.221 324.277 132.061C323.557 132.901 322.597 133.321 321.397 133.321Z" fill="url(#paint9_linear_3_12)"/>
<path d="M197.173 133.321C190.693 133.321 184.933 131.821 179.893 128.821C174.973 125.701 171.133 121.441 168.373 116.041C165.613 110.521 164.233 104.221 164.233 97.141V13.9809C164.233 11.461 163.813 9.78096 162.973 8.94095C162.253 8.10096 160.633 7.44096 158.113 6.96096L153.973 6.24095C152.413 5.88095 151.633 5.16095 151.633 4.08095C151.633 2.76095 152.533 2.10095 154.333 2.10095H187.273C189.073 2.10095 189.973 2.82095 189.973 4.26096C189.973 5.34095 189.313 6.00095 187.993 6.24095L183.133 6.96096C180.733 7.32095 179.113 7.98095 178.273 8.94095C177.433 9.90095 177.013 11.641 177.013 14.1609V97.321C177.013 106.441 179.053 113.521 183.133 118.561C187.213 123.601 192.913 126.121 200.233 126.121C207.673 126.121 213.433 123.601 217.513 118.561C221.593 113.521 223.633 106.441 223.633 97.321V17.761C223.633 11.281 221.593 7.68095 217.513 6.96096L212.653 6.24095C211.333 6.00095 210.673 5.34095 210.673 4.26096C210.673 2.82095 211.573 2.10095 213.373 2.10095H239.293C241.093 2.10095 241.993 2.76095 241.993 4.08095C241.993 5.16095 241.213 5.88095 239.653 6.24095L235.513 6.96096C231.433 7.68095 229.393 11.221 229.393 17.581V97.141C229.393 108.061 226.453 116.821 220.573 123.421C214.693 130.021 206.893 133.321 197.173 133.321Z" fill="url(#paint10_linear_3_12)"/>
<path d="M71.3712 131.701C69.5712 131.701 68.6712 131.101 68.6712 129.901C68.6712 128.701 69.5112 127.921 71.1912 127.561L73.8912 127.021C76.2912 126.541 78.0912 125.401 79.2912 123.601C80.4912 121.681 81.5112 119.041 82.3512 115.681L110.251 3.1809C110.491 1.9809 110.851 1.2009 111.331 0.840893C111.931 0.480897 112.471 0.300903 112.951 0.300903C113.551 0.300903 114.091 0.480897 114.571 0.840893C115.171 1.2009 115.591 1.9809 115.831 3.1809L144.271 117.301C145.111 120.661 146.071 123.001 147.151 124.321C148.231 125.641 149.911 126.541 152.191 127.021L154.891 127.561C156.571 127.921 157.411 128.701 157.411 129.901C157.411 131.101 156.511 131.701 154.711 131.701H123.931C122.251 131.701 121.411 131.041 121.411 129.721C121.411 128.401 122.431 127.681 124.471 127.561L127.891 127.201C129.931 126.961 131.191 126.301 131.671 125.221C132.271 124.141 132.271 122.281 131.671 119.641L124.831 91.7409C124.111 88.6209 122.131 87.0609 118.891 87.0609H99.9912C96.8712 87.0609 94.8912 88.6209 94.0512 91.7409L87.9312 115.861C86.1312 122.701 87.9312 126.481 93.3312 127.201L96.0312 127.561C98.0712 127.921 99.0912 128.641 99.0912 129.721C99.0912 131.041 98.2512 131.701 96.5712 131.701H71.3712ZM99.4512 81.6609H119.251C121.171 81.6609 121.951 80.6409 121.591 78.6009L110.071 30.3609H109.171L97.1112 78.6009C96.7512 80.6409 97.5312 81.6609 99.4512 81.6609Z" fill="url(#paint11_linear_3_12)"/>
<path d="M3.67577 131.701C1.87577 131.701 0.975769 131.041 0.975769 129.721C0.975769 128.641 1.75577 127.921 3.31577 127.561L7.45577 126.841C9.97577 126.361 11.5958 125.701 12.3158 124.861C13.1558 124.021 13.5758 122.341 13.5758 119.821V13.9809C13.5758 11.461 13.1558 9.78096 12.3158 8.94095C11.5958 8.10096 9.97577 7.44096 7.45577 6.96096L3.31577 6.24095C1.75577 5.88095 0.975769 5.16095 0.975769 4.08095C0.975769 2.76095 1.87577 2.10095 3.67577 2.10095H36.6158C38.4158 2.10095 39.3158 2.82095 39.3158 4.26096C39.3158 5.34095 38.6558 6.00095 37.3358 6.24095L32.4758 6.96096C29.9558 7.32095 28.2758 7.98095 27.4358 8.94095C26.7158 9.90095 26.3558 11.641 26.3558 14.1609V114.961C26.3558 119.281 27.5558 122.401 29.9558 124.321C32.4758 126.241 35.5958 127.201 39.3158 127.201C42.0758 127.201 44.8958 126.661 47.7758 125.581C50.7758 124.381 53.4758 122.221 55.8758 119.101C58.2758 115.861 60.0758 111.181 61.2758 105.061L63.6158 93.001C63.9758 91.441 64.8758 90.6609 66.3158 90.6609C67.9958 90.6609 68.7158 91.681 68.4758 93.721L66.3158 127.561C66.0758 130.321 64.5758 131.701 61.8158 131.701H3.67577Z" fill="url(#paint12_linear_3_12)"/>
<defs>
<linearGradient id="paint0_linear_3_12" x1="1057.58" y1="67.711" x2="1149.02" y2="67.711" gradientUnits="userSpaceOnUse">
<stop stop-color="white"/>
<stop offset="1"/>
</linearGradient>
<linearGradient id="paint1_linear_3_12" x1="966.103" y1="66.8109" x2="1048.9" y2="66.8109" gradientUnits="userSpaceOnUse">
<stop stop-color="white"/>
<stop offset="1"/>
</linearGradient>
<linearGradient id="paint2_linear_3_12" x1="868.896" y1="66.8109" x2="951.696" y2="66.8109" gradientUnits="userSpaceOnUse">
<stop stop-color="white"/>
<stop offset="1"/>
</linearGradient>
<linearGradient id="paint3_linear_3_12" x1="795.776" y1="66.8109" x2="856.256" y2="66.8109" gradientUnits="userSpaceOnUse">
<stop stop-color="white"/>
<stop offset="1"/>
</linearGradient>
<linearGradient id="paint4_linear_3_12" x1="671.143" y1="66.8109" x2="754.122" y2="66.8109" gradientUnits="userSpaceOnUse">
<stop stop-color="white"/>
<stop offset="1"/>
</linearGradient>
<linearGradient id="paint5_linear_3_12" x1="571.725" y1="67.711" x2="663.165" y2="67.711" gradientUnits="userSpaceOnUse">
<stop stop-color="white"/>
<stop offset="1"/>
</linearGradient>
<linearGradient id="paint6_linear_3_12" x1="527.441" y1="66.901" x2="565.421" y2="66.901" gradientUnits="userSpaceOnUse">
<stop stop-color="white"/>
<stop offset="1"/>
</linearGradient>
<linearGradient id="paint7_linear_3_12" x1="429.179" y1="66.901" x2="520.619" y2="66.901" gradientUnits="userSpaceOnUse">
<stop stop-color="white"/>
<stop offset="1"/>
</linearGradient>
<linearGradient id="paint8_linear_3_12" x1="346.475" y1="66.8109" x2="418.475" y2="66.8109" gradientUnits="userSpaceOnUse">
<stop stop-color="white"/>
<stop offset="1"/>
</linearGradient>
<linearGradient id="paint9_linear_3_12" x1="247.057" y1="67.711" x2="338.497" y2="67.711" gradientUnits="userSpaceOnUse">
<stop stop-color="white"/>
<stop offset="1"/>
</linearGradient>
<linearGradient id="paint10_linear_3_12" x1="151.633" y1="67.711" x2="241.993" y2="67.711" gradientUnits="userSpaceOnUse">
<stop stop-color="white"/>
<stop offset="1"/>
</linearGradient>
<linearGradient id="paint11_linear_3_12" x1="68.6712" y1="66.0009" x2="157.411" y2="66.0009" gradientUnits="userSpaceOnUse">
<stop stop-color="white"/>
<stop offset="1"/>
</linearGradient>
<linearGradient id="paint12_linear_3_12" x1="0.975769" y1="66.901" x2="68.5208" y2="66.901" gradientUnits="userSpaceOnUse">
<stop stop-color="white"/>
<stop offset="1"/>
</linearGradient>
</defs>
</svg>
