<svg width="160" height="47" viewBox="0 0 160 47" fill="none" xmlns="http://www.w3.org/2000/svg">
<path d="M50.4596 46.2359L66.9696 26.0209V46.2359H76.0696V0.865913H66.9696V21.2109L50.4596 0.865913H39.4745L58.1945 23.3559L38.9546 46.2359H50.4596Z" fill="white"/>
<path d="M91.4654 46.2359L81.4554 28.5559H77.1654V46.2359H68.0654V0.865913H85.0954C88.6054 0.865913 91.5954 1.49425 94.0654 2.75091C96.5354 3.96424 98.3771 5.63258 99.5904 7.75591C100.847 9.83591 101.475 12.1759 101.475 14.7759C101.475 17.7659 100.609 20.4742 98.8754 22.9009C97.1421 25.2842 94.5637 26.9309 91.1404 27.8409L101.995 46.2359H91.4654ZM77.1654 21.7309H84.7704C87.2404 21.7309 89.082 21.1459 90.2954 19.9759C91.5087 18.7626 92.1154 17.0942 92.1154 14.9709C92.1154 12.8909 91.5087 11.2876 90.2954 10.1609C89.082 8.99091 87.2404 8.40591 84.7704 8.40591H77.1654V21.7309Z" fill="white"/>
<path d="M159.935 0.679031L147.26 46.049H136.535L128.02 13.744L119.115 46.049L108.455 46.114L96.2346 0.679031H105.985L113.98 35.909L123.21 0.679031H133.35L142.06 35.714L150.12 0.679031H159.935Z" fill="white"/>
<path d="M38.8704 46.3009H29.7704L9.16537 15.1659V46.3009H0.0653687V0.865913H9.16537L29.7704 32.0659V0.865913H38.8704V46.3009Z" fill="#FF5F57"/>
</svg>
